<svg xmlns="http://www.w3.org/2000/svg" viewBox="0 0 300 300"><defs><style>.cls-1{fill:#f3e9d2;}.cls-2,.cls-3,.cls-4,.cls-5,.cls-6{fill:none;stroke-width:3px;}.cls-2,.cls-3{stroke:#f2cc46;}.cls-2,.cls-5{stroke-linejoin:round;}.cls-3,.cls-4,.cls-6,.cls-7{stroke-miterlimit:10;}.cls-4,.cls-5{stroke:#e1899e;}.cls-6{stroke:#469dd4;}.cls-7,.cls-8{fill:#fff;}.cls-7{stroke:#423534;stroke-width:2.5px;}.cls-9{fill:#423534;}.cls-10{fill:#469dd4;}.cls-11{fill:#f2cc46;}.cls-12{fill:#e1899e;}.cls-13{fill:#d63f3f;}.cls-14{fill:#8dbff1;}</style></defs><g id="background"><rect class="cls-1" width="300" height="300" rx="30"/></g><g id="lines"><line class="cls-2" x1="79.18" y1="94.35" x2="70.38" y2="85.55"/><path class="cls-3" d="M124.27-36.55l-.15,121,.15,38.43a5.44,5.44,0,0,0,1.61,3.87l23.69,23.7V190a5.46,5.46,0,0,1-1.61,3.89l-29.18,29.19H67.15a5.52,5.52,0,0,1-3.89-1.61l-9.38-9.39L29.09,187.26a5.46,5.46,0,0,1-1.61-3.89V139.53a5.46,5.46,0,0,1,1.61-3.89L74.77,90"/><path class="cls-4" d="M193.42,327.55l.16-114.4-39.09-39.09a5.46,5.46,0,0,1-1.61-3.89v-23l48.39-48.4H234.2a5.52,5.52,0,0,1,3.89,1.61L264,126.25l5,5a5.47,5.47,0,0,1,1.62,3.89v69.22"/><line class="cls-5" x1="277.73" y1="204.9" x2="263.42" y2="204.9"/><path class="cls-6" d="M46.18,103.15H95.33a5.5,5.5,0,0,1,3.89,1.61l45.69,45.69,36.89,36.89a5.5,5.5,0,0,0,3.89,1.61H286"/><line class="cls-6" x1="286.52" y1="196.65" x2="286.52" y2="182.35"/><line class="cls-6" x1="45.63" y1="109.75" x2="45.62" y2="95.45"/></g><g id="stations"><polygon class="cls-7" points="160.57 146.05 153.97 146.05 153.97 139.45 145.18 139.45 145.18 146.05 138.57 146.05 138.57 154.85 145.18 154.85 145.18 161.45 153.97 161.45 153.97 154.85 160.57 154.85 160.57 146.05"/><polygon class="cls-8" points="118.59 89.75 124.28 79.9 129.96 89.75 118.59 89.75"/><path class="cls-9" d="M124.28,81.4l4.38,7.6h-8.77l4.39-7.6m0-3-7,12.1h14l-7-12.1Z"/><rect class="cls-8" x="49.13" y="207.3" width="9.5" height="9.5"/><path class="cls-9" d="M57.88,208.05v8h-8v-8h8m1.5-1.5h-11v11h11v-11Z"/><rect class="cls-8" x="22.73" y="149" width="9.5" height="9.5"/><path class="cls-9" d="M31.47,149.75v8h-8v-8h8m1.5-1.5H22v11H33v-11Z"/><path class="cls-8" d="M201.28,104.05a5.3,5.3,0,1,1,5.3-5.3A5.31,5.31,0,0,1,201.28,104.05Z"/><path class="cls-9" d="M201.27,94.2a4.55,4.55,0,1,1-4.54,4.55,4.55,4.55,0,0,1,4.54-4.55m0-1.5a6,6,0,1,0,6,6,6,6,0,0,0-6-6Z"/><rect class="cls-8" x="56.83" y="98.4" width="9.5" height="9.5"/><path class="cls-9" d="M65.57,99.15v8h-8v-8h8m1.5-1.5h-11v11h11v-11Z"/><polygon class="cls-8" points="190.51 214.9 187.45 211.92 191.68 211.3 193.57 207.47 195.47 211.3 199.7 211.92 196.64 214.9 197.36 219.11 193.57 217.12 189.79 219.11 190.51 214.9"/><path class="cls-9" d="M193.57,208.94l1.16,2.34.3.62.68.09,2.59.38-1.87,1.83-.49.47.11.68.44,2.57-2.31-1.21-.61-.32-.6.32-2.31,1.21.44-2.57.11-.68-.49-.47-1.87-1.83,2.59-.38.68-.09.3-.62,1.15-2.34m0-2.94-2.32,4.71-5.19.75,3.76,3.67-.89,5.17,4.64-2.44,4.65,2.44-.89-5.17,3.76-3.67-5.19-.75L193.57,206Z"/><path class="cls-8" d="M264,131.55a5.3,5.3,0,1,1,5.31-5.3A5.31,5.31,0,0,1,264,131.55Z"/><path class="cls-9" d="M264,121.7a4.55,4.55,0,1,1-4.56,4.55A4.55,4.55,0,0,1,264,121.7m0-1.5a6.05,6.05,0,1,0,6,6,6.05,6.05,0,0,0-6-6Z"/><path class="cls-8" d="M270.58,194.25a5.3,5.3,0,1,1,5.3-5.3A5.3,5.3,0,0,1,270.58,194.25Z"/><path class="cls-9" d="M270.58,184.4A4.55,4.55,0,1,1,266,189a4.55,4.55,0,0,1,4.56-4.55m0-1.5a6.05,6.05,0,1,0,6,6,6.05,6.05,0,0,0-6-6Z"/><rect class="cls-8" x="114.02" y="218.3" width="9.5" height="9.5"/><path class="cls-9" d="M122.78,219.05v8h-8v-8h8m1.5-1.5h-11v11h11v-11Z"/></g><g id="trains"><rect class="cls-10" x="75.32" y="98.75" width="15.4" height="8.8"/><rect class="cls-11" x="30.77" y="192.25" width="15.4" height="8.8" transform="translate(-73.37 362.91) rotate(-135)"/><rect class="cls-11" x="116.57" y="22.85" width="15.4" height="8.8" transform="translate(97.03 151.52) rotate(-90)"/><rect class="cls-12" x="185.87" y="263.75" width="15.4" height="8.8" transform="translate(-74.57 461.72) rotate(-90)"/><rect class="cls-12" x="173.77" y="114.15" width="15.4" height="8.8" transform="translate(-30.67 163.04) rotate(-45)"/></g><g id="people"><circle class="cls-9" cx="162.78" cy="140.55" r="2.42"/><rect class="cls-9" x="278.27" y="183.45" width="4.4" height="4.4"/><polygon class="cls-9" points="175.97 138.13 173.18 142.97 178.77 142.97 175.97 138.13"/><polygon class="cls-9" points="169.38 138.13 166.58 142.97 172.17 142.97 169.38 138.13"/><polygon class="cls-9" points="182.57 142.43 180.72 143.41 181.07 141.34 179.57 139.88 181.65 139.57 182.57 137.69 183.5 139.57 185.58 139.88 184.08 141.34 184.43 143.41 182.57 142.43"/><polygon class="cls-13" points="177.46 118.57 176.53 119.5 175.59 118.57 174.35 119.82 175.28 120.75 174.35 121.68 175.59 122.93 176.53 121.99 177.46 122.93 178.7 121.68 177.77 120.75 178.7 119.82 177.46 118.57"/><polygon class="cls-9" points="274.98 122.07 273.65 122.07 273.65 120.75 271.89 120.75 271.89 122.07 270.57 122.07 270.57 123.83 271.89 123.83 271.89 125.15 273.65 125.15 273.65 123.83 274.98 123.83 274.98 122.07"/><polygon class="cls-9" points="37.38 149.13 34.58 153.97 40.17 153.97 37.38 149.13"/><polygon class="cls-9" points="63.77 207.43 60.98 212.27 66.57 212.27 63.77 207.43"/><rect class="cls-9" x="201.62" y="206.28" width="4.4" height="4.4"/><rect class="cls-14" x="75.88" y="99.3" width="4.4" height="4.4"/></g></svg>