<svg xmlns="http://www.w3.org/2000/svg" viewBox="0 0 300 300"><defs><style>.cls-1{fill:#dfdfdf;}.cls-2{fill:#c8c8c8;}.cls-3{fill:#e1899e;}.cls-4{fill:#f79ab4;}.cls-5{fill:#4cafe0;}.cls-6{fill:#edc548;}.cls-7{fill:#d7b53e;}.cls-8{fill:#58a05c;}.cls-9{fill:#66b568;}</style></defs><g id="frame"><path class="cls-1" d="M277,0H23A23,23,0,0,0,0,23V277a23,23,0,0,0,23,23H277a23,23,0,0,0,23-23V23A23,23,0,0,0,277,0Zm3,265a15,15,0,0,1-15,15H35a15,15,0,0,1-15-15V35A15,15,0,0,1,35,20H265a15,15,0,0,1,15,15Z"/><path class="cls-2" d="M277,0H189.62l-5.35,20H265a15,15,0,0,1,15,15V265a15,15,0,0,1-15,15H114.6l-5.36,20H277a23,23,0,0,0,23-23V23A23,23,0,0,0,277,0Z"/></g><g id="lines"><polygon class="cls-3" points="266.66 109 212.86 109 162.92 129 154.4 132.41 147.93 156.55 216.72 129 280 129 280 109 266.66 109"/><polygon class="cls-4" points="80.63 183.5 130.57 163.5 147.93 156.55 154.4 132.41 76.78 163.5 20 163.5 20 183.5 26.84 183.5 80.63 183.5"/><polygon class="cls-5" points="114.85 280 135.56 280 205.22 20 184.52 20 114.85 280"/><polygon class="cls-6" points="191.32 171 146.29 93 134.74 73 111.65 73 20 73 20 93 123.2 93 168.23 171 179.78 191 202.87 191 280 191 280 171 191.32 171"/><polygon class="cls-7" points="151.72 142.4 168.23 171 179.78 191 202.87 191 280 191 280 171 191.32 171 159.04 115.08 151.72 142.4"/><polygon class="cls-8" points="163.26 229 135.86 201.59 129.88 223.9 134.98 229 154.98 249 183.26 249 280 249 280 229 163.26 229"/><polygon class="cls-9" points="74 139.74 74 20 54 20 54 119.73 54 148.02 74 168.02 129.88 223.9 135.86 201.59 74 139.74"/></g></svg>